#!OML:ASF H:\MichaelJackson\Top Level 1\Subject 1\Session 1\male.ASF
:FULLY-SPECIFIED
:DEGREES
785
root 26.7974 16.7403 -6.21346 -173.283 1.17404 -173.378
lowerback 3.34663 1.49313 7.54223
upperback 1.57425 2.35522 1.22534
thorax -0.00372411 1.27171 -3.03023
lowerneck -9.11479 -2.53857 0.0553598
upperneck 12.8806 -4.02533 2.37709
head 5.43003 -1.89203 0.428781
rclavicle 1.48731e-014 1.92573e-014
rhumerus -69.6151 76.5946 -116.244
rradius 73.3861
rwrist -12.7674
rhand 47.3089 -29.9102
rfingers 7.12502
rthumb 68.0992 -390.899
lclavicle 1.48731e-014 1.92573e-014
lhumerus -49.2746 -16.8836 96.1572
lradius 70.2434
lwrist 18.7124
lhand -3.00281 35.8642
lfingers 7.12502
lthumb 22.7113 64.5476
rfemur -20.1291 -1.75948 30.0926
rtibia 36.0611
rfoot -17.7195 -6.35332
rtoes -9.68043
lfemur -48.2671 1.72456 -10.3541
ltibia 73.657
lfoot 17.2061 -7.23031
ltoes 30.5419
786
root 26.7893 16.7382 -6.10627 -173.246 1.3301 -173.689
lowerback 3.34243 1.43703 7.38466
upperback 1.59669 2.26556 1.10121
thorax 0.0113333 1.22435 -3.06806
lowerneck -9.17249 -2.46465 0.17348
upperneck 12.9552 -3.93176 2.26882
head 5.45747 -1.8476 0.381355
rclavicle 3.90208e-014 9.75287e-015
rhumerus -70.0438 78.9821 -116.788
rradius 73.8595
rwrist -13.937
rhand 48.7001 -30.2059
rfingers 7.12502
rthumb 69.0786 -388.673
lclavicle 3.90208e-014 9.75287e-015
lhumerus -50.2893 -16.5397 96.1169
lradius 69.4382
lwrist 20.7088
lhand -2.0666 36.709
lfingers 7.12502
lthumb 23.6095 65.2796
rfemur -20.4838 -1.36144 29.6719
rtibia 35.9599
rfoot -17.7162 -6.43342
rtoes -9.68824
lfemur -47.9327 1.44833 -10.4875
ltibia 74.6266
lfoot 17.679 -7.14406
ltoes 30.4668
787
root 26.7803 16.7351 -5.99875 -173.184 1.51053 -174.003
lowerback 3.32677 1.38765 7.23043
upperback 1.61367 2.18448 0.976497
thorax 0.0282553 1.18125 -3.10821
lowerneck -9.23267 -2.39139 0.289351
upperneck 13.0249 -3.8363 2.14865
head 5.4838 -1.80301 0.33077
rclavicle -7.3364e-015 2.45499e-014
rhumerus -70.2119 81.3304 -117.063
rradius 74.2738
rwrist -15.1155
rhand 50.1175 -30.52
rfingers 7.12502
rthumb 70.0284 -386.164
lclavicle -7.3364e-015 2.45499e-014
lhumerus -51.3295 -16.1971 96.0607
lradius 68.8394
lwrist 22.2024
lhand -1.22255 37.4876
lfingers 7.12502
lthumb 24.4189 65.9514
rfemur -20.9094 -0.979546 29.2465
rtibia 35.9203
rfoot -17.676 -6.47211
rtoes -9.63006
lfemur -47.563 1.22582 -10.6481
ltibia 75.4816
lfoot 18.1209 -7.08546
ltoes 30.4838
788
root 26.7707 16.7307 -5.8909 -173.088 1.73619 -174.295
lowerback 3.28712 1.35508 7.08814
upperback 1.62475 2.12505 0.860296
thorax 0.0549715 1.14936 -3.14602
lowerneck -9.29917 -2.32022 0.396426
upperneck 13.0902 -3.741 2.02391
head 5.51015 -1.75903 0.280159
rclavicle -8.35517e-015 -1.03368e-014
rhumerus -69.8864 83.6381 -116.834
rradius 74.6317
rwrist -16.2845
rhand 51.5187 -30.8667
rfingers 7.12502
rthumb 70.9127 -383.445
lclavicle -8.35517e-015 -1.03368e-014
lhumerus -52.3956 -15.8664 96.0058
lradius 68.428
lwrist 23.1584
lhand -0.572606 38.071
lfingers 7.12502
lthumb 25.0418 66.4494
rfemur -21.4223 -0.608465 28.8454
rtibia 35.9484
rfoot -17.5926 -6.45919
rtoes -9.5357
lfemur -47.1694 1.09499 -10.813
ltibia 76.2256
lfoot 18.5231 -7.05822
ltoes 30.5638
789
root 26.7604 16.7255 -5.78262 -172.967 2.00757 -174.58
lowerback 3.24018 1.33994 6.94388
upperback 1.62855 2.08902 0.749228
thorax 0.0804514 1.12897 -3.17786
lowerneck -9.37009 -2.25042 0.498229
upperneck 13.1541 -3.6457 1.89452
head 5.53701 -1.71553 0.228938
rclavicle 1.46355e-014 9.44227e-016
rhumerus -68.3655 85.8902 -115.396
rradius 74.9328
rwrist -17.3994
rhand 52.878 -31.243
rfingers 7.12502
rthumb 71.711 -380.568
lclavicle 1.46355e-014 9.44227e-016
lhumerus -53.4915 -15.5613 95.9649
lradius 68.1719
lwrist 23.5645
lhand -0.116179 38.3794
lfingers 7.12502
lthumb 25.4791 66.6961
rfemur -22.0144 -0.264498 28.4538
rtibia 36.0427
rfoot -17.4703 -6.37844
rtoes -9.35029
lfemur -46.7422 1.05837 -11.0006
ltibia 76.8592
lfoot 18.8667 -7.05047
ltoes 30.6727
